<svg xmlns="http://www.w3.org/2000/svg" viewBox="0 0 669.86 638.55"><defs><style>.cls-1{fill:#003;}.cls-2,.cls-5{fill:#9f9f9f;}.cls-3{fill:none;stroke:#003;stroke-width:11px;}.cls-3,.cls-5{stroke-miterlimit:10;}.cls-4{fill:#fff;}.cls-5{font-size:130.81px;stroke:#fff;}.cls-5,.cls-6{font-family:Impact, Impact;}.cls-6{font-size:26.96px;fill:gray;}</style></defs><title>Logo_completo</title><g id="Capa_2" data-name="Capa 2"><g id="Capa_1-2" data-name="Capa 1"><path class="cls-1" d="M347.91,476.95c14.13-8.59,29.46-13.53,45.37-16.81,32.88-6.78,66.07-7.89,99.45-5.2,11.59.93,23.16,2.07,35.13,3.15V179.23l-34.53,8.91c-.78-5.13-1.35-10-2.28-14.86-5.05-26.3-20-45.53-43.27-58A245.23,245.23,0,0,0,355.3,87c-48.42-4.72-92.47,7.67-133.87,32.6-23.56,14.19-34.53,34.6-36,61.2-.05,1-.11,2-.25,3-.23,1.64-.52,3.26-.92,5.74l-37.08-6.7V458.26c8.82-.94,17.49-2,26.18-2.77,44.09-3.68,87.87-2.93,130.52,10.67,7.68,2.45,14.9,6.37,22.32,9.64a33.14,33.14,0,0,1,3.06,1.93c-67.36-5.88-133.22-1-199.65,4.74V278.54c-3.95-.46-7.39-.65-10.75-1.3-9.14-1.75-14.56-7.14-14.33-16.43a102.47,102.47,0,0,1,3.74-26.48c5.73-19.24,13-38,18.81-57.24,1.93-6.36,1.9-13.43,2-20.19.32.16.32-66.84.32-66.84,38.82-17.31,81.92-37.33,120.76-54.59,26-11.54,52.1-22.73,78.15-34.1,4.93-2.15,9.76-1.53,14.55.4,16.34,6.57,32.81,12.85,49,19.8Q524.73,78.61,657.44,136c3.8,1.64,7.48,3.54,12.42,5.88-7.06,1.93-13,3.62-19,5.17-33.6,8.77-67.18,17.57-100.82,26.15-4.07,1-4.47,3.17-4.47,6.72q.12,147.73.07,295.47c0,2.15,0,4.29,0,7.13C479.63,476.69,413.93,471.94,347.91,476.95Z"/><path class="cls-1" d="M209.45,214.05c0-60.82,0-65,38.36-85,29.44-15.95,61.2-22,94.41-21.34,28.72.61,55.94,7.06,81.57,20.48,42.23,26.39,41.66,27.89,41.66,80.89.11,48.82.51,133.53.56,182.34,0,2,0,4,0,6.44-27.12,2.29-53,7.55-77.7,17.51-10.92,4.4-21.41,9.94-31.93,15.26-2.23,1.13-4.07,3.38-5.61,5.47-4.11,5.59-7.95,11.38-12.35,17.76-3.92-5.43-7.22-10.57-11.12-15.21a37.29,37.29,0,0,0-9.49-8.47c-32.89-18.86-68.56-28.71-106.17-32-.64-.06-1.27-.19-2.23-.34-.08-1.72-.23-3.34-.22-5q.12-91.48.31-183m84,45.18c-21.48,3.08-40.42,8.9-61.94,17.28-3.52,1.37-5.09,2.91-5.05,7.09.23,31,.13,96.18.13,98.37.87.26,66.87-17.74,66.87-17.74Zm88,0c-28.24-5.76-52.71-6.2-82-2,0,0,.08,106.9,0,107h82Zm6,1v105l60.88,12.45c0-33.66,0-61.28.16-94.94,0-2.8-1.33-3.63-3.53-4.49C424.58,266.16,407.18,260.07,387.45,256.05Zm0,112h-94s-57.23,14.6-56.93,14.64c26.41,4.25,53.92,15.05,74.65,31.94a10.11,10.11,0,0,0,5.88,1.94q20.49.25,41,0a10.82,10.82,0,0,0,6.27-2.23,149.4,149.4,0,0,1,36.21-21.89,146.56,146.56,0,0,1,46.7-11.24Z"/><path class="cls-2" d="M332.39,466.3c-50-33.5-105.22-37.31-162.82-29.88v-220l17.5,2.54V406.9c5.73,0,11.34-.16,16.93,0,35.48,1.17,68.77,9.74,98.43,29.91A130.55,130.55,0,0,1,320,451.58C324.54,456,328.28,461.36,332.39,466.3Z"/><path class="cls-2" d="M505.61,216V436.45C448,429,392.66,432.7,343,467c10.44-16.24,24.45-28.28,41.09-37.43,30.4-16.71,63.22-23.07,97.57-22.92h6.65c0-2.26,0-4.18,0-6.1,0-58.15-.09-121.09-.28-179.24C494.62,217.67,500.45,218,505.61,216Z"/><path class="cls-1" d="M0,143,108.46,97.68v74.06Z"/><line class="cls-3" x1="125.95" y1="535.55" x2="544.95" y2="535.55"/><rect class="cls-4" x="192.45" y="487.05" width="2" height="2"/><rect class="cls-4" x="194.45" y="523.05" width="282" height="28"/><text class="cls-5" transform="translate(208.78 594.81) scale(0.96 1)">COES</text><text class="cls-6" transform="translate(88.65 626.42) scale(1.42 1)">SISTEMA DE GESTIÓN ACADÉMICA</text><path d="M79,291.79"/></g></g></svg>